<?xml version="1.0" encoding="utf-8"?>
<?xml-stylesheet type="text/xsl" href="rss1.xsl"?>
<rss version="2.0" xmlns:atom="http://www.w3.org/2005/Atom" xmlns:content="http://purl.org/rss/1.0/modules/content/" xmlns:dc="http://purl.org/dc/elements/1.1/" xmlns:media="http://search.yahoo.com/mrss/">
<channel>
 <title>Getty</title>
 <link>http://www.gettyimg.com/</link>
 <atom:link href="http://www.gettyimg.com/" rel="self" type="application/rss+xml" />

 
                <item>
                <title><![CDATA[【Requests】[REQ AUD] - Hi Can someone get this please?]]></title>
                <link><![CDATA[https://sharemania.us/threads/hi-can-someone-get-this-please.241623/]]></link>
                <description><![CDATA[<article>
<blockquote class="messageText SelectQuoteContainer ugc baseHtml">
Hi would someone please be able to get these albums and songs in the Highest Quality (24-48 or higher) and in ALAC format please. Thank you so much in advance.<br>
<br>
<a href="https://music.apple.com/us/album/dune-original-motion-picture-soundtrack/1583651332" target="_blank" class="externalLink" rel="nofollow">‎Dune (Original Motion Picture Soundtrack) - Album by Hans Zimmer - Apple Music</a><br>
<a href="https://music.apple.com/us/album/dune-part-two-original-motion-picture-soundtrack/1732115750" target="_blank" class="externalLink" rel="nofollow">‎Dune: Part Two (Original Motion Picture Soundtrack) - Album by Hans Zimmer - Apple Music</a><br>
<a href="https://music.apple.com/us/album/noir-single/1738519166" target="_blank" class="externalLink" rel="nofollow">Noir - Single - Album by sho - Apple Music</a><br>
<a href="https://music.apple.com/us/album/noir-sl0wed-down-single/1738519573" target="_blank" class="externalLink" rel="nofollow">‎Noir (Sl0wed Down) - Single - Album by sho - Apple Music</a><br>
<a href="https://music.apple.com/us/album/tell-m%C3%AB/1731044406?i=1731044690" target="_blank" class="externalLink" rel="nofollow">https://music.apple.com/us/album/tell-më/1731044406?i=1731044690</a> - Only "Tell me"
<div class="messageTextEndMarker">&nbsp;</div>
</blockquote>
</article>]]></description>
                <author><![CDATA[extrajohn2022]]></author>
                </item>

                
                <item>
                <title><![CDATA[【HD Live Performances】HDTV - Alicia Keys, Beenie Man, Junior Reid, Chaka Demus &amp; Pliers - No One (Reggae Mix) - AMAs 2007-11-18 HDTV 40Mbps 720i DD5.1-CtrlHD]]></title>
                <link><![CDATA[https://sharemania.us/threads/alicia-keys-beenie-man-junior-reid-chaka-demus-pliers-no-one-reggae-mix-amas-2007-11-18-hdtv-40mbps-720i-dd5-1-ctrlhd.241622/]]></link>
                <description><![CDATA[<article>
<blockquote class="messageText SelectQuoteContainer ugc baseHtml">
<div style="text-align: center"><img src="https://i.imgur.com/N3cZDvB.jpeg" class="bbCodeImage LbImage" alt="[​IMG]" data-url="https://i.imgur.com/N3cZDvB.jpeg" style=""> <br>
<img src="https://i.imgur.com/OcBSVj4.jpeg" class="bbCodeImage LbImage" alt="[​IMG]" data-url="https://i.imgur.com/OcBSVj4.jpeg" style=""> <br>
<div class="ToggleTriggerAnchor bbCodeSpoilerContainer">
<button type="button" class="button bbCodeSpoilerButton ToggleTrigger Tooltip JsOnly" data-target="> .SpoilerTarget"><span>Spoiler: <span class="SpoilerTitle">MediaInfo</span></span></button>
<div class="SpoilerTarget bbCodeSpoilerText">Format : MPEG-TS<br>
File size : 1.56 GiB<br>
Duration : 5 min 34 s<br>
Overall bit rate mode : Variable<br>
Overall bit rate : 40.1 Mb/s<br>
Frame rate : 59.940 FPS<br>
<br>
Video<br>
ID : 17 (0x11)<br>
Menu ID : 1 (0x1)<br>
Format : MPEG Video<br>
Format version : Version 2<br>
Format profile : Main@High<br>
Format settings : CustomMatrix / BVOP<br>
Format settings, BVOP : Yes<br>
Format settings, Matrix : Custom<br>
Format settings, GOP : M=3, N=30<br>
Codec ID : 2<br>
Duration : 5 min 34 s<br>
Bit rate mode : Variable<br>
Bit rate : 37.4 Mb/s<br>
Maximum bit rate : 38.5 Mb/s<br>
Width : 1 280 pixels<br>
Height : 720 pixels<br>
Display aspect ratio : 16:9<br>
Frame rate : 59.940 (60000/1001) FPS<br>
Standard : Component<br>
Color space : YUV<br>
Chroma subsampling : 4:2:0<br>
Bit depth : 8 bits<br>
Scan type : Progressive<br>
Compression mode : Lossy<br>
Bits/(Pixel*Frame) : 0.677<br>
Time code of first frame : 00:00:00:00<br>
Time code source : Group of pictures header<br>
GOP, Open/Closed : Open<br>
GOP, Open/Closed of first f : Closed<br>
Stream size : 1.46 GiB (93%)<br>
<br>
Audio<br>
ID : 20 (0x14)<br>
Menu ID : 1 (0x1)<br>
Format : AC-3<br>
Format/Info : Audio Coding 3<br>
Commercial name : Dolby Digital<br>
Codec ID : 129<br>
Duration : 5 min 34 s<br>
Bit rate mode : Constant<br>
Bit rate : 640 kb/s<br>
Channel(s) : 6 channels<br>
Channel layout : L R C LFE Ls Rs<br>
Sampling rate : 48.0 kHz<br>
Frame rate : 31.250 FPS (1536 SPF)<br>
Compression mode : Lossy<br>
Stream size : 25.5 MiB (2%)<br>
Service kind : Complete Main</div>
</div><br>
<div class="bbCodeBlock bbCodeVfcHH HiddenContent">
<div class="attribution type">Hidden Content:</div>
<blockquote>You must reply before you can see the hidden data contained here.</blockquote>
</div></div>
<div class="messageTextEndMarker">&nbsp;</div>
</blockquote>
</article>]]></description>
                <author><![CDATA[Carlos]]></author>
                </item>

                </channel></rss>